<?xml version="1.0" encoding="UTF-8"?>
<svg xmlns="http://www.w3.org/2000/svg" xmlns:xlink="http://www.w3.org/1999/xlink" width="16px" height="16px" viewBox="0 0 16 16" version="1.1">
<defs>
<linearGradient id="linear0" gradientUnits="userSpaceOnUse" x1="0.0708973" y1="0.5" x2="0.844232" y2="0.402863" gradientTransform="matrix(11.831875,0,0,14.265,3.608125,0.883125)">
<stop offset="0" style="stop-color:rgb(27.45098%,32.54902%,32.941176%);stop-opacity:1;"/>
<stop offset="1" style="stop-color:rgb(32.156863%,38.039216%,38.431373%);stop-opacity:1;"/>
</linearGradient>
<linearGradient id="linear1" gradientUnits="userSpaceOnUse" x1="-0.240325" y1="0.530215" x2="1.244013" y2="0.305535" gradientTransform="matrix(12.993125,0,0,13.296875,0.583125,1.508125)">
<stop offset="0" style="stop-color:rgb(100%,80%,0%);stop-opacity:1;"/>
<stop offset="1" style="stop-color:rgb(95.294118%,87.058824%,17.254902%);stop-opacity:1;"/>
</linearGradient>
</defs>
<g id="surface1">
<path style=" stroke:none;fill-rule:evenodd;fill:url(#linear0);" d="M 10.113281 1.851562 C 14.222656 3.246094 15.238281 4.824219 15.441406 6.40625 C 15.578125 7.476562 15.167969 8.386719 14.769531 9.125 C 13.875 10.769531 12.675781 11.671875 11.871094 12.316406 C 10.902344 13.089844 8.363281 15.21875 6.035156 15.148438 C 6.683594 14.929688 7.191406 14.570312 7.28125 14.195312 C 7.492188 13.3125 6.84375 12.75 6.898438 12.476562 C 6.953125 12.207031 10.40625 9.390625 10.707031 9.390625 C 11.003906 9.390625 11.601562 10.050781 12.210938 10.15625 C 13.226562 10.335938 14.59375 7.589844 14.074219 6.101562 C 13.554688 4.617188 12.425781 3.550781 8.421875 2.167969 C 6.25 1.417969 4.722656 1.148438 3.609375 1.1875 C 4.765625 0.671875 6.632812 0.671875 10.113281 1.851562 Z M 5.265625 5.207031 C 5.179688 5.722656 5.179688 6.269531 5.257812 6.851562 C 5.34375 7.472656 5.511719 8.003906 5.761719 8.441406 C 5.460938 8.667969 5.140625 8.757812 4.835938 8.691406 C 4.378906 8.589844 4.015625 7.839844 3.910156 7.210938 C 3.808594 6.585938 3.734375 5.53125 4.21875 5.242188 C 4.484375 5.082031 4.867188 5.105469 5.265625 5.207031 Z M 5.265625 5.207031 "/>
<path style=" stroke:none;fill-rule:evenodd;fill:url(#linear1);" d="M 7.84375 2.425781 C 11.566406 3.710938 12.980469 4.753906 13.460938 6.132812 C 13.945312 7.515625 12.984375 9.6875 12.039062 9.523438 C 11.472656 9.425781 10.917969 8.8125 10.640625 8.8125 C 10.367188 8.8125 6.261719 12.21875 6.210938 12.46875 C 6.15625 12.722656 6.761719 13.246094 6.566406 14.0625 C 6.371094 14.878906 4.273438 15.167969 2.996094 14.234375 C 1.738281 13.316406 1.015625 11.433594 0.699219 9.128906 C 0.386719 6.820312 0.453125 2.839844 1.449219 2.105469 C 2.445312 1.375 4.125 1.140625 7.84375 2.425781 Z M 4.09375 4.742188 C 3.660156 4.71875 3.285156 5.042969 3.242188 5.472656 L 3.242188 5.488281 L 3.238281 5.507812 C 3.199219 6.0625 3.21875 6.601562 3.296875 7.121094 C 3.386719 7.683594 3.570312 8.285156 3.851562 8.917969 C 4.027344 9.316406 4.488281 9.503906 4.894531 9.339844 L 5.042969 9.28125 C 5.226562 9.203125 5.34375 9.15625 5.382812 9.136719 L 5.386719 9.136719 C 5.839844 8.914062 6.167969 8.671875 6.402344 8.492188 L 6.429688 8.46875 C 6.65625 8.292969 7.007812 7.992188 7.375 7.535156 L 7.402344 7.503906 C 7.445312 7.453125 7.523438 7.351562 7.617188 7.21875 L 7.625 7.207031 C 7.648438 7.175781 7.722656 7.039062 7.855469 6.800781 C 8.054688 6.429688 7.9375 5.964844 7.585938 5.734375 L 7.527344 5.695312 C 7.230469 5.503906 7.039062 5.390625 6.960938 5.355469 C 6.675781 5.234375 6.328125 5.109375 6.0625 5.035156 L 6.023438 5.027344 C 5.695312 4.9375 5.304688 4.851562 4.890625 4.800781 L 4.867188 4.796875 C 4.765625 4.785156 4.507812 4.765625 4.09375 4.742188 Z M 4.09375 4.742188 "/>
</g>
</svg>
